<?xml version="1.0" encoding="UTF-8"?>
<svg width="180px" height="180px" viewBox="0 0 180 180" version="1.1" xmlns="http://www.w3.org/2000/svg" xmlns:xlink="http://www.w3.org/1999/xlink">
    <!-- Generator: Sketch 48 (47235) - http://www.bohemiancoding.com/sketch -->
    <title>Combined Shape</title>
    <desc>Created with Sketch.</desc>
    <defs></defs>
    <g id="Page-1" stroke="none" stroke-width="1" fill="none" fill-rule="evenodd">
        <path d="M176.337021,0 C178.360206,0 180,1.64039845 180,3.66296639 L180,176.337034 C180,178.359602 178.359596,180 176.337021,180 L3.66297882,180 C1.64040401,180 0,178.359602 0,176.337034 L0,3.66296639 C0,1.64039845 1.64040401,0 3.66297882,0 L153.491633,0 C155.514208,0 157.154612,1.64039845 157.154612,3.66296639 C157.154612,5.68553434 155.514208,7.32593278 153.491633,7.32593278 L7.32595763,7.32593278 L7.32595763,172.673457 L124.900252,172.673457 L124.900252,58.8644804 C124.900252,56.8419125 126.540656,55.201514 128.56323,55.201514 C130.585805,55.201514 132.226209,56.8419125 132.226209,58.8644804 L132.226209,172.674067 L172.674042,172.674067 L172.674042,39.0667576 L17.9614166,39.0667576 C15.9388418,39.0667576 14.2984378,37.4263591 14.2984378,35.4037912 C14.2984378,33.3812232 15.9388418,31.7408248 17.9614166,31.7408248 L172.674042,31.7408248 L172.674042,3.66296639 C172.674042,1.64039845 174.314446,0 176.337021,0 Z M138.642857,63 C136.631393,63 135,61.4325833 135,59.5 C135,57.5674167 136.631393,56 138.642857,56 L165.357143,56 C167.368607,56 169,57.5674167 169,59.5 C169,61.4325833 167.368607,63 165.357143,63 L138.642857,63 Z M138.642857,100 C136.631393,100 135,98.4325833 135,96.5 C135,94.5674167 136.631393,93 138.642857,93 L165.357143,93 C167.368607,93 169,94.5674167 169,96.5 C169,98.4325833 167.368607,100 165.357143,100 L138.642857,100 Z M138.642857,81 C136.631393,81 135,79.4325833 135,77.5 C135,75.5674167 136.631393,74 138.642857,74 L165.357143,74 C167.368607,74 169,75.5674167 169,77.5 C169,79.4325833 167.368607,81 165.357143,81 L138.642857,81 Z M138.642857,118 C136.631393,118 135,116.432583 135,114.5 C135,112.567417 136.631393,111 138.642857,111 L165.357143,111 C167.368607,111 169,112.567417 169,114.5 C169,116.432583 167.368607,118 165.357143,118 L138.642857,118 Z M138.642857,156 C136.631393,156 135,154.432583 135,152.5 C135,150.567417 136.631393,149 138.642857,149 L165.357143,149 C167.368607,149 169,150.567417 169,152.5 C169,154.432583 167.368607,156 165.357143,156 L138.642857,156 Z M138.642857,137 C136.631393,137 135,135.432583 135,133.5 C135,131.567417 136.631393,130 138.642857,130 L165.357143,130 C167.368607,130 169,131.567417 169,133.5 C169,135.432583 167.368607,137 165.357143,137 L138.642857,137 Z M17.0208333,17.0208333 C17.6741667,16.3733333 18.5725,16 19.5,16 C20.4216667,16 21.32,16.3733333 21.9733333,17.0208333 C22.6208333,17.6741667 23,18.5725 23,19.5 C23,20.4216667 22.62025,21.32 21.9733333,21.9733333 C21.32,22.6208333 20.4158333,23 19.5,23 C18.5725,23 17.6741667,22.6208333 17.0208333,21.9733333 C16.3733333,21.32 16,20.4216667 16,19.5 C16,18.5725 16.3733333,17.6741667 17.0208333,17.0208333 Z M29.0266667,17.0266667 C29.68,16.3733333 30.5783333,16 31.5,16 C32.4216667,16 33.32,16.3733333 33.9733333,17.0266667 C34.6260833,17.68 35,18.5841667 35,19.5 C35,20.4216667 34.6260833,21.3258333 33.9733333,21.9791667 C33.3258333,22.6266667 32.4216667,23 31.5,23 C30.5783333,23 29.6741667,22.6266667 29.0266667,21.9791667 C28.3733333,21.3258333 28,20.4216667 28,19.5 C28,18.5841667 28.3733333,17.68 29.0266667,17.0266667 Z M41.0258118,17.0258118 C41.679184,16.378851 42.582015,16 43.5029142,16 C44.4174022,16 45.3213988,16.378851 45.9741882,17.0258118 C46.6263947,17.6786012 47,18.582015 47,19.5029142 C47,20.417985 46.6263947,21.3213988 45.9741882,21.9741882 C45.3213988,22.6269775 44.4174022,23 43.5029142,23 C42.582015,23 41.6786012,22.6269775 41.0258118,21.9741882 C40.3782681,21.3213988 40,20.4238135 40,19.5029142 C40,18.582015 40.378851,17.6786012 41.0258118,17.0258118 Z" id="Combined-Shape" fill="#D4D1D4" fill-rule="nonzero"></path>
    </g>
</svg>